STARTFONT 2.1
COMMENT Created by fdbbdf
FONT kalfnt12
SIZE 12 78 78
FONTBOUNDINGBOX 55 38 -30 -24
STARTPROPERTIES 4
Ownership "  "
FONT_ASCENT 14
FONT_DESCENT 24
DEFAULT_CHAR 32
ENDPROPERTIES
CHARS 127
STARTCHAR ch-0
ENCODING -1 0
SWIDTH 0 0
DWIDTH 9 0
BBX 8 8 0 4
BITMAP
fe00
6200
6000
1000
2000
ff00
2000
1000
ENDCHAR
STARTCHAR ch-1
ENCODING -1 1
SWIDTH 0 0
DWIDTH 6 0
BBX 5 11 0 1
BITMAP
2000
2000
2000
2000
2000
2000
2000
a800
7000
2000
2000
ENDCHAR
STARTCHAR ch-2
ENCODING -1 2
SWIDTH 0 0
DWIDTH 7 0
BBX 6 11 0 1
BITMAP
7800
cc00
cc00
cc00
fc00
fc00
fc00
cc00
cc00
cc00
7800
ENDCHAR
STARTCHAR ch-3
ENCODING -1 3
SWIDTH 0 0
DWIDTH 9 0
BBX 8 11 0 1
BITMAP
1800
1800
1800
1800
2c00
2c00
2c00
2c00
4600
4600
ef00
ENDCHAR
STARTCHAR ch-4
ENCODING -1 4
SWIDTH 0 0
DWIDTH 7 0
BBX 6 11 0 1
BITMAP
fc00
fc00
8400
8400
fc00
fc00
8400
0000
8400
fc00
fc00
ENDCHAR
STARTCHAR ch-5
ENCODING -1 5
SWIDTH 0 0
DWIDTH 9 0
BBX 8 11 0 1
BITMAP
ff00
6600
6600
6600
6600
6600
6600
6600
6600
6600
ff00
ENDCHAR
STARTCHAR ch-6
ENCODING -1 6
SWIDTH 0 0
DWIDTH 7 0
BBX 6 11 0 1
BITMAP
fc00
c400
6000
6000
3000
3000
2000
2000
4000
4400
fc00
ENDCHAR
STARTCHAR ch-7
ENCODING -1 7
SWIDTH 0 0
DWIDTH 9 0
BBX 8 11 0 1
BITMAP
6600
ff00
9900
9900
1800
1800
1800
1800
1800
1800
3c00
ENDCHAR
STARTCHAR ch-8
ENCODING -1 8
SWIDTH 0 0
DWIDTH 7 0
BBX 6 11 0 1
BITMAP
7800
3000
3000
7800
fc00
fc00
fc00
7800
3000
3000
7800
ENDCHAR
STARTCHAR ch-9
ENCODING -1 9
SWIDTH 0 0
DWIDTH 9 0
BBX 8 16 0 -3
BITMAP
aa00
5500
aa00
5500
aa00
5500
aa00
5500
aa00
5500
aa00
5500
aa00
5500
aa00
5500
ENDCHAR
STARTCHAR ch-10
ENCODING -1 10
SWIDTH 0 0
DWIDTH 9 0
BBX 8 16 0 -3
BITMAP
ff00
ff00
ff00
ff00
ff00
ff00
ff00
ff00
ff00
ff00
ff00
ff00
ff00
ff00
ff00
ff00
ENDCHAR
STARTCHAR ch-11
ENCODING -1 11
SWIDTH 0 0
DWIDTH 3 0
BBX 2 16 0 -3
BITMAP
c000
c000
c000
c000
c000
c000
c000
c000
c000
c000
c000
c000
c000
c000
c000
c000
ENDCHAR
STARTCHAR ch-12
ENCODING -1 12
SWIDTH 0 0
DWIDTH 3 0
BBX 2 16 0 -3
BITMAP
c000
c000
c000
c000
c000
c000
c000
c000
c000
c000
c000
c000
c000
c000
c000
c000
ENDCHAR
STARTCHAR ch-13
ENCODING -1 13
SWIDTH 0 0
DWIDTH 9 0
BBX 8 16 0 -3
BITMAP
ff00
ff00
c300
c300
c300
c300
c300
c300
c300
c300
c300
c300
c300
c300
ff00
ff00
ENDCHAR
STARTCHAR ch-14
ENCODING -1 14
SWIDTH 0 0
DWIDTH 4 0
BBX 3 3 0 9
BITMAP
6000
6000
8000
ENDCHAR
STARTCHAR ch-15
ENCODING -1 15
SWIDTH 0 0
DWIDTH 5 0
BBX 4 3 0 9
BITMAP
6000
6000
9000
ENDCHAR
STARTCHAR ch-16
ENCODING -1 16
SWIDTH 0 0
DWIDTH 5 0
BBX 4 2 0 9
BITMAP
f000
6000
ENDCHAR
STARTCHAR ch-17
ENCODING -1 17
SWIDTH 0 0
DWIDTH 5 0
BBX 4 3 0 9
BITMAP
9000
9000
6000
ENDCHAR
STARTCHAR ch-18
ENCODING -1 18
SWIDTH 0 0
DWIDTH 7 0
BBX 6 1 0 9
BITMAP
fc00
ENDCHAR
STARTCHAR ch-19
ENCODING -1 19
SWIDTH 0 0
DWIDTH 7 0
BBX 6 2 0 10
BITMAP
cc00
cc00
ENDCHAR
STARTCHAR ch-20
ENCODING -1 20
SWIDTH 0 0
DWIDTH 2 0
BBX 0 0 0 0
BITMAP
ENDCHAR
STARTCHAR ch-21
ENCODING -1 21
SWIDTH 0 0
DWIDTH 9 0
BBX 8 8 0 1
BITMAP
7600
7a00
9900
9900
9900
9900
5e00
6e00
ENDCHAR
STARTCHAR ch-22
ENCODING -1 22
SWIDTH 0 0
DWIDTH 9 0
BBX 8 11 0 1
BITMAP
3c00
4200
4200
a500
9900
8900
9900
a500
4200
4200
3c00
ENDCHAR
STARTCHAR ch-23
ENCODING -1 23
SWIDTH 0 0
DWIDTH 3 0
BBX 2 3 0 9
BITMAP
c000
c000
c000
ENDCHAR
STARTCHAR ch-24
ENCODING -1 24
SWIDTH 0 0
DWIDTH 2 0
BBX 0 0 0 0
BITMAP
ENDCHAR
STARTCHAR ch-25
ENCODING -1 25
SWIDTH 0 0
DWIDTH 9 0
BBX 8 5 0 4
BITMAP
0800
0400
ff00
0400
0800
ENDCHAR
STARTCHAR ch-26
ENCODING -1 26
SWIDTH 0 0
DWIDTH 7 0
BBX 6 1 0 -1
BITMAP
fc00
ENDCHAR
STARTCHAR ch-27
ENCODING -1 27
SWIDTH 0 0
DWIDTH 2 0
BBX 0 0 0 0
BITMAP
ENDCHAR
STARTCHAR ch-28
ENCODING -1 28
SWIDTH 0 0
DWIDTH 2 0
BBX 0 0 0 0
BITMAP
ENDCHAR
STARTCHAR ch-29
ENCODING -1 29
SWIDTH 0 0
DWIDTH 2 0
BBX 0 0 0 0
BITMAP
ENDCHAR
STARTCHAR ch-30
ENCODING -1 30
SWIDTH 0 0
DWIDTH 7 0
BBX 6 11 0 1
BITMAP
7c00
7400
7000
7000
7800
7800
7000
b000
b000
b000
bc00
ENDCHAR
STARTCHAR ch-31
ENCODING -1 31
SWIDTH 0 0
DWIDTH 2 0
BBX 0 0 0 0
BITMAP
ENDCHAR
STARTCHAR sp
ENCODING -1 32
SWIDTH 0 0
DWIDTH 9 0
BBX 0 0 0 0
BITMAP
ENDCHAR
STARTCHAR !
ENCODING -1 33
SWIDTH 0 0
DWIDTH 3 0
BBX 2 11 0 1
BITMAP
c000
c000
c000
c000
c000
c000
c000
0000
0000
c000
c000
ENDCHAR
STARTCHAR "
ENCODING -1 34
SWIDTH 0 0
DWIDTH 8 0
BBX 7 5 0 6
BITMAP
ee00
ee00
ee00
4400
4400
ENDCHAR
STARTCHAR #
ENCODING -1 35
SWIDTH 0 0
DWIDTH 9 0
BBX 8 11 0 1
BITMAP
1200
1200
1200
ff00
2400
2400
2400
ff00
4800
4800
4800
ENDCHAR
STARTCHAR $
ENCODING -1 36
SWIDTH 0 0
DWIDTH 8 0
BBX 7 13 0 0
BITMAP
1000
7a00
9600
9200
d000
f000
7800
1c00
1400
d400
d400
7800
1000
ENDCHAR
STARTCHAR %
ENCODING -1 37
SWIDTH 0 0
DWIDTH 9 0
BBX 8 11 0 1
BITMAP
6200
de00
d400
d400
6800
0800
1600
1d00
2d00
2d00
4600
ENDCHAR
STARTCHAR &
ENCODING -1 38
SWIDTH 0 0
DWIDTH 9 0
BBX 8 12 0 0
BITMAP
1800
3c00
3200
3200
3400
1800
3b00
4a00
cc00
cc00
4a00
3100
ENDCHAR
STARTCHAR '
ENCODING -1 39
SWIDTH 0 0
DWIDTH 3 0
BBX 2 4 0 8
BITMAP
c000
c000
4000
8000
ENDCHAR
STARTCHAR (
ENCODING -1 40
SWIDTH 0 0
DWIDTH 5 0
BBX 4 11 0 1
BITMAP
1000
2000
4000
c000
c000
c000
c000
c000
4000
2000
1000
ENDCHAR
STARTCHAR )
ENCODING -1 41
SWIDTH 0 0
DWIDTH 5 0
BBX 4 11 0 1
BITMAP
8000
4000
2000
3000
3000
3000
3000
3000
2000
4000
8000
ENDCHAR
STARTCHAR *
ENCODING -1 42
SWIDTH 0 0
DWIDTH 8 0
BBX 7 7 0 3
BITMAP
1000
5400
3800
fe00
3800
5400
1000
ENDCHAR
STARTCHAR +
ENCODING -1 43
SWIDTH 0 0
DWIDTH 8 0
BBX 7 7 0 2
BITMAP
1000
1000
1000
fe00
1000
1000
1000
ENDCHAR
STARTCHAR ,
ENCODING -1 44
SWIDTH 0 0
DWIDTH 4 0
BBX 3 6 0 -2
BITMAP
4000
e000
e000
6000
4000
8000
ENDCHAR
STARTCHAR -
ENCODING -1 45
SWIDTH 0 0
DWIDTH 7 0
BBX 6 1 0 5
BITMAP
fc00
ENDCHAR
STARTCHAR .
ENCODING -1 46
SWIDTH 0 0
DWIDTH 4 0
BBX 3 4 0 0
BITMAP
4000
e000
e000
4000
ENDCHAR
STARTCHAR /
ENCODING -1 47
SWIDTH 0 0
DWIDTH 7 0
BBX 6 11 0 1
BITMAP
0400
0400
0800
0800
1000
1000
2000
2000
4000
4000
8000
ENDCHAR
STARTCHAR 0
ENCODING -1 48
SWIDTH 0 0
DWIDTH 7 0
BBX 24 24 1 -12
BITMAP
00180000
003c0000
007e0000
00ff0000
003c0000
003c0000
003c0000
003c0000
103c0800
30000c00
7f81fe00
ff81ff00
ff81ff00
7f81fe00
30000c00
103c0800
003c0000
003c0000
003c0000
003c0000
00ff0000
007e0000
003c0000
00180000
ENDCHAR
STARTCHAR 1
ENCODING -1 49
SWIDTH 0 0
DWIDTH 7 0
BBX 24 8 1 -4
BITMAP
10000800
30000c00
7f81fe00
ff81ff00
ff81ff00
7f81fe00
30000c00
10000800
ENDCHAR
STARTCHAR 2
ENCODING -1 50
SWIDTH 0 0
DWIDTH 7 0
BBX 8 24 9 -12
BITMAP
1800
3c00
7e00
ff00
3c00
3c00
3c00
3c00
3c00
0000
0000
0000
0000
0000
0000
3c00
3c00
3c00
3c00
3c00
ff00
7e00
3c00
1800
ENDCHAR
STARTCHAR 3
ENCODING -1 51
SWIDTH 0 0
DWIDTH 7 0
BBX 6 11 0 1
BITMAP
7000
8800
cc00
cc00
1800
3000
0800
cc00
cc00
8800
7000
ENDCHAR
STARTCHAR 4
ENCODING -1 52
SWIDTH 0 0
DWIDTH 8 0
BBX 7 11 0 1
BITMAP
0400
0c00
0c00
1c00
2c00
4c00
4c00
fe00
0c00
0c00
1e00
ENDCHAR
STARTCHAR 5
ENCODING -1 53
SWIDTH 0 0
DWIDTH 7 0
BBX 6 11 0 1
BITMAP
7c00
7800
4000
4000
7000
4800
0c00
0c00
cc00
c800
7000
ENDCHAR
STARTCHAR 6
ENCODING -1 54
SWIDTH 0 0
DWIDTH 7 0
BBX 6 11 0 1
BITMAP
3800
6c00
ec00
c000
f000
e800
cc00
cc00
cc00
e800
7000
ENDCHAR
STARTCHAR 7
ENCODING -1 55
SWIDTH 0 0
DWIDTH 7 0
BBX 6 11 0 1
BITMAP
fc00
f800
8800
1000
1000
1000
3000
3000
3000
3000
3000
ENDCHAR
STARTCHAR 8
ENCODING -1 56
SWIDTH 0 0
DWIDTH 7 0
BBX 6 11 0 1
BITMAP
7800
c400
c400
c400
6800
3800
5c00
8c00
8c00
8800
7000
ENDCHAR
STARTCHAR 9
ENCODING -1 57
SWIDTH 0 0
DWIDTH 7 0
BBX 6 11 0 1
BITMAP
3000
5800
cc00
cc00
cc00
cc00
7c00
3c00
8c00
d800
7000
ENDCHAR
STARTCHAR :
ENCODING -1 58
SWIDTH 0 0
DWIDTH 3 0
BBX 2 8 0 1
BITMAP
c000
c000
0000
0000
0000
0000
c000
c000
ENDCHAR
STARTCHAR ;
ENCODING -1 59
SWIDTH 0 0
DWIDTH 3 0
BBX 2 10 0 -1
BITMAP
c000
c000
0000
0000
0000
0000
c000
c000
4000
8000
ENDCHAR
STARTCHAR <
ENCODING -1 60
SWIDTH 0 0
DWIDTH 6 0
BBX 5 9 0 2
BITMAP
0800
1000
2000
4000
8000
4000
2000
1000
0800
ENDCHAR
STARTCHAR =
ENCODING -1 61
SWIDTH 0 0
DWIDTH 8 0
BBX 7 4 0 4
BITMAP
fe00
0000
0000
fe00
ENDCHAR
STARTCHAR >
ENCODING -1 62
SWIDTH 0 0
DWIDTH 6 0
BBX 5 9 0 2
BITMAP
8000
4000
2000
1000
0800
1000
2000
4000
8000
ENDCHAR
STARTCHAR ?
ENCODING -1 63
SWIDTH 0 0
DWIDTH 7 0
BBX 6 11 0 1
BITMAP
7800
cc00
cc00
0800
1000
3000
3000
3000
0000
3000
3000
ENDCHAR
STARTCHAR @
ENCODING -1 64
SWIDTH 0 0
DWIDTH 8 0
BBX 7 10 0 1
BITMAP
3000
4800
8400
9e00
a600
a600
9a00
8000
4400
3800
ENDCHAR
STARTCHAR A
ENCODING -1 65
SWIDTH 0 0
DWIDTH 12 0
BBX 21 20 -10 -11
BITMAP
fffff800
803ff800
803ff800
803ff800
803ff800
803ff800
803ff800
803ff800
803ff800
fffff800
fffff800
80000800
80000800
80000800
80000800
80000800
80000800
80000800
80000800
fffff800
ENDCHAR
STARTCHAR B
ENCODING -1 66
SWIDTH 0 0
DWIDTH 9 0
BBX 8 11 0 1
BITMAP
fc00
6600
6600
6600
6600
7c00
6200
6300
6300
6300
fe00
ENDCHAR
STARTCHAR C
ENCODING -1 67
SWIDTH 0 0
DWIDTH 7 0
BBX 6 11 0 1
BITMAP
3400
6c00
4400
c400
c000
c000
c000
c400
4400
6800
3000
ENDCHAR
STARTCHAR D
ENCODING -1 68
SWIDTH 0 0
DWIDTH 9 0
BBX 8 11 0 1
BITMAP
f800
6400
6600
6300
6300
6300
6300
6300
6600
6400
f800
ENDCHAR
STARTCHAR E
ENCODING -1 69
SWIDTH 0 0
DWIDTH 8 0
BBX 7 11 0 1
BITMAP
fe00
6200
6000
6000
6800
7800
6800
6000
6000
6200
fe00
ENDCHAR
STARTCHAR F
ENCODING -1 70
SWIDTH 0 0
DWIDTH 8 0
BBX 7 11 0 1
BITMAP
fe00
6200
6000
6000
6800
7800
6800
6000
6000
6000
f000
ENDCHAR
STARTCHAR G
ENCODING -1 71
SWIDTH 0 0
DWIDTH 8 0
BBX 7 11 0 1
BITMAP
3400
6c00
4400
c400
c000
c000
de00
cc00
4c00
6c00
3400
ENDCHAR
STARTCHAR H
ENCODING -1 72
SWIDTH 0 0
DWIDTH 10 0
BBX 19 26 -9 -12
BITMAP
ffffe000
ffffe000
6000c000
6000c000
6000c000
6000c000
30418000
31f18000
1bfb0000
0df60000
06ec0000
03580000
03180000
03580000
03180000
064c0000
0c060000
18430000
30018000
30418000
63f8c000
67fcc000
6ffec000
6ffec000
ffffe000
ffffe000
ENDCHAR
STARTCHAR I
ENCODING -1 73
SWIDTH 0 0
DWIDTH 5 0
BBX 4 11 0 1
BITMAP
f000
6000
6000
6000
6000
6000
6000
6000
6000
6000
f000
ENDCHAR
STARTCHAR J
ENCODING -1 74
SWIDTH 0 0
DWIDTH 7 0
BBX 6 11 0 1
BITMAP
3c00
1800
1800
1800
1800
1800
1800
1800
d800
d800
7000
ENDCHAR
STARTCHAR K
ENCODING -1 75
SWIDTH 0 0
DWIDTH 9 0
BBX 8 11 0 1
BITMAP
f700
6400
6800
7000
7800
7800
7800
6c00
6c00
6600
ff00
ENDCHAR
STARTCHAR L
ENCODING -1 76
SWIDTH 0 0
DWIDTH 8 0
BBX 7 11 0 1
BITMAP
f000
6000
6000
6000
6000
6000
6000
6000
6000
6200
fe00
ENDCHAR
STARTCHAR M
ENCODING -1 77
SWIDTH 0 0
DWIDTH 9 0
BBX 8 11 0 1
BITMAP
4200
4200
6600
6600
6600
6600
5a00
5a00
5a00
4200
e700
ENDCHAR
STARTCHAR N
ENCODING -1 78
SWIDTH 0 0
DWIDTH 9 0
BBX 8 11 0 1
BITMAP
e700
7200
7200
5a00
5a00
4e00
4e00
4600
4600
4200
e200
ENDCHAR
STARTCHAR O
ENCODING -1 79
SWIDTH 0 0
DWIDTH 7 0
BBX 6 11 0 1
BITMAP
7800
cc00
cc00
cc00
cc00
cc00
cc00
cc00
cc00
cc00
7800
ENDCHAR
STARTCHAR P
ENCODING -1 80
SWIDTH 0 0
DWIDTH 8 0
BBX 7 11 0 1
BITMAP
fc00
6600
6600
6600
6600
7c00
6000
6000
6000
6000
f000
ENDCHAR
STARTCHAR Q
ENCODING -1 81
SWIDTH 0 0
DWIDTH 8 0
BBX 7 12 0 0
BITMAP
7800
cc00
cc00
cc00
cc00
cc00
cc00
cc00
dc00
dc00
7e00
0e00
ENDCHAR
STARTCHAR R
ENCODING -1 82
SWIDTH 0 0
DWIDTH 9 0
BBX 8 11 0 1
BITMAP
f800
6400
6600
6600
6400
7800
6800
6c00
6c00
6700
f300
ENDCHAR
STARTCHAR S
ENCODING -1 83
SWIDTH 0 0
DWIDTH 7 0
BBX 6 11 0 1
BITMAP
7400
8c00
8400
c000
f000
7800
1c00
0c00
8400
cc00
b800
ENDCHAR
STARTCHAR T
ENCODING -1 84
SWIDTH 0 0
DWIDTH 7 0
BBX 6 11 0 1
BITMAP
fc00
fc00
b400
3000
3000
3000
3000
3000
3000
3000
7800
ENDCHAR
STARTCHAR U
ENCODING -1 85
SWIDTH 0 0
DWIDTH 9 0
BBX 8 11 0 1
BITMAP
f700
6200
6200
6200
6200
6200
6200
6200
6200
3400
1800
ENDCHAR
STARTCHAR V
ENCODING -1 86
SWIDTH 0 0
DWIDTH 9 0
BBX 8 11 0 1
BITMAP
f700
6200
6200
3400
3400
3400
1c00
1800
1800
1800
1800
ENDCHAR
STARTCHAR W
ENCODING -1 87
SWIDTH 0 0
DWIDTH 9 0
BBX 8 11 0 1
BITMAP
e700
4200
4200
5a00
5a00
7e00
6600
6600
6600
4200
4200
ENDCHAR
STARTCHAR X
ENCODING -1 88
SWIDTH 0 0
DWIDTH 9 0
BBX 8 11 0 1
BITMAP
f700
6200
3400
3800
1800
1800
1800
1c00
2c00
4600
ef00
ENDCHAR
STARTCHAR Y
ENCODING -1 89
SWIDTH 0 0
DWIDTH 9 0
BBX 8 11 0 1
BITMAP
f700
6200
3400
3400
1800
1800
1800
1800
1800
1800
3c00
ENDCHAR
STARTCHAR Z
ENCODING -1 90
SWIDTH 0 0
DWIDTH 7 0
BBX 6 11 0 1
BITMAP
fc00
8c00
1800
1800
3000
3000
3000
6000
6000
c400
fc00
ENDCHAR
STARTCHAR [
ENCODING -1 91
SWIDTH 0 0
DWIDTH 5 0
BBX 4 11 0 1
BITMAP
f000
8000
8000
8000
8000
8000
8000
8000
8000
8000
f000
ENDCHAR
STARTCHAR \
ENCODING -1 92
SWIDTH 0 0
DWIDTH 7 0
BBX 6 11 0 1
BITMAP
8000
8000
4000
4000
2000
2000
1000
1000
0800
0800
0400
ENDCHAR
STARTCHAR ]
ENCODING -1 93
SWIDTH 0 0
DWIDTH 5 0
BBX 4 11 0 1
BITMAP
f000
1000
1000
1000
1000
1000
1000
1000
1000
1000
f000
ENDCHAR
STARTCHAR ^
ENCODING -1 94
SWIDTH 0 0
DWIDTH 8 0
BBX 7 11 0 1
BITMAP
1000
1000
3800
5400
9200
1000
1000
1000
1000
1000
1000
ENDCHAR
STARTCHAR _
ENCODING -1 95
SWIDTH 0 0
DWIDTH 9 0
BBX 8 2 0 0
BITMAP
ff00
ff00
ENDCHAR
STARTCHAR `
ENCODING -1 96
SWIDTH 0 0
DWIDTH 3 0
BBX 2 4 0 8
BITMAP
4000
8000
c000
c000
ENDCHAR
STARTCHAR a
ENCODING -1 97
SWIDTH 0 0
DWIDTH 8 0
BBX 20 9 0 -7
BITMAP
ff800000
fe000000
7c000000
7f000000
3fc00000
31f80000
107ff000
100ff000
0000f000
ENDCHAR
STARTCHAR b
ENCODING -1 98
SWIDTH 0 0
DWIDTH 8 0
BBX 7 11 0 1
BITMAP
e000
6000
6000
7800
6400
6600
6600
6600
6600
6400
5800
ENDCHAR
STARTCHAR c
ENCODING -1 99
SWIDTH 0 0
DWIDTH 7 0
BBX 6 8 0 1
BITMAP
3c00
6c00
c000
c000
c000
c000
6400
3800
ENDCHAR
STARTCHAR d
ENCODING -1 100
SWIDTH 0 0
DWIDTH 8 0
BBX 7 11 0 1
BITMAP
1c00
0c00
0c00
3c00
4c00
cc00
cc00
cc00
cc00
4c00
3e00
ENDCHAR
STARTCHAR e
ENCODING -1 101
SWIDTH 0 0
DWIDTH 8 0
BBX 7 8 0 1
BITMAP
3800
6400
c600
fe00
c000
c000
6200
3c00
ENDCHAR
STARTCHAR f
ENCODING -1 102
SWIDTH 0 0
DWIDTH 8 0
BBX 29 14 -30 -7
BITMAP
001ff000
00fff800
fff00c00
ff83fff0
6003fff8
70000018
3001fff8
3801fff0
18000c00
1801fc00
1fc1f800
1fe06000
007fe000
003fc000
ENDCHAR
STARTCHAR g
ENCODING -1 103
SWIDTH 0 0
DWIDTH 7 0
BBX 6 11 0 -2
BITMAP
3c00
4c00
cc00
cc00
cc00
cc00
4c00
3c00
0c00
cc00
7800
ENDCHAR
STARTCHAR h
ENCODING -1 104
SWIDTH 0 0
DWIDTH 9 0
BBX 17 19 -8 -8
BITMAP
01c00000
01c00000
05d00000
07f00000
03e00000
01c00000
00800000
ffff8000
00000000
00000000
00000000
ffff8000
00800000
01c00000
03e00000
07f00000
05d00000
01c00000
01c00000
ENDCHAR
STARTCHAR i
ENCODING -1 105
SWIDTH 0 0
DWIDTH 5 0
BBX 4 11 0 1
BITMAP
6000
6000
0000
e000
6000
6000
6000
6000
6000
6000
f000
ENDCHAR
STARTCHAR j
ENCODING -1 106
SWIDTH 0 0
DWIDTH 6 0
BBX 5 14 0 -2
BITMAP
1800
1800
0000
3800
1800
1800
1800
1800
1800
1800
1800
1800
d800
f000
ENDCHAR
STARTCHAR k
ENCODING -1 107
SWIDTH 0 0
DWIDTH 9 0
BBX 8 11 0 1
BITMAP
e000
6000
6000
6e00
6800
7000
7800
7800
6c00
6c00
ff00
ENDCHAR
STARTCHAR l
ENCODING -1 108
SWIDTH 0 0
DWIDTH 5 0
BBX 13 13 -12 1
BITMAP
0018
0018
0018
0018
0018
0018
0018
0018
0018
0018
0018
fff8
fff8
ENDCHAR
STARTCHAR m
ENCODING -1 109
SWIDTH 0 0
DWIDTH 9 0
BBX 8 8 0 1
BITMAP
e600
7700
6b00
6b00
6b00
6300
6300
f700
ENDCHAR
STARTCHAR n
ENCODING -1 110
SWIDTH 0 0
DWIDTH 9 0
BBX 8 8 0 1
BITMAP
fc00
6600
6600
6600
6600
6600
6600
ff00
ENDCHAR
STARTCHAR o
ENCODING -1 111
SWIDTH 0 0
DWIDTH 7 0
BBX 6 8 0 1
BITMAP
3000
4800
cc00
cc00
cc00
cc00
4800
3000
ENDCHAR
STARTCHAR p
ENCODING -1 112
SWIDTH 0 0
DWIDTH 7 0
BBX 17 26 -10 -24
BITMAP
07ff8000
08890000
11120000
11120000
22240000
22240000
22240000
44480000
44480000
44480000
44480000
44480000
40080000
fffc0000
fffc0000
fffc0000
fffc0000
fffc0000
fffc0000
03000000
03000000
03000000
03000000
03000000
03000000
03000000
ENDCHAR
STARTCHAR q
ENCODING -1 113
SWIDTH 0 0
DWIDTH 8 0
BBX 7 11 0 -2
BITMAP
3a00
4600
c600
c600
c600
c600
4600
3e00
0600
0600
0e00
ENDCHAR
STARTCHAR r
ENCODING -1 114
SWIDTH 0 0
DWIDTH 7 0
BBX 6 8 0 1
BITMAP
f800
6c00
6000
6000
6000
6000
6000
f000
ENDCHAR
STARTCHAR s
ENCODING -1 115
SWIDTH 0 0
DWIDTH 8 0
BBX 7 8 0 1
BITMAP
7c00
8400
c000
7800
3c00
8600
c200
bc00
ENDCHAR
STARTCHAR t
ENCODING -1 116
SWIDTH 0 0
DWIDTH 8 0
BBX 7 10 0 1
BITMAP
1000
1000
fe00
3000
3000
3000
3200
3200
3200
1c00
ENDCHAR
STARTCHAR u
ENCODING -1 117
SWIDTH 0 0
DWIDTH 9 0
BBX 13 13 0 -11
BITMAP
fff8
fff8
c000
c000
c000
c000
c000
c000
c000
c000
c000
c000
c000
ENDCHAR
STARTCHAR v
ENCODING -1 118
SWIDTH 0 0
DWIDTH 9 0
BBX 19 17 -9 -7
BITMAP
01100000
01100000
01100000
01100000
01100000
31118000
19130000
fd17e000
ff1fe000
fd17e000
19130000
31118000
01100000
01100000
01100000
01100000
01100000
ENDCHAR
STARTCHAR w
ENCODING -1 119
SWIDTH 0 0
DWIDTH 10 0
BBX 19 23 -9 -12
BITMAP
00400000
00a00000
01100000
02080000
05840000
09f20000
107d0000
200e8000
407c4000
81f02000
47c04000
2e008000
17c10000
09f20000
04340000
02080000
01100000
00a00000
00e00000
00a00000
00a00000
00a00000
03f80000
ENDCHAR
STARTCHAR x
ENCODING -1 120
SWIDTH 0 0
DWIDTH 9 0
BBX 8 8 0 1
BITMAP
f700
3400
3800
1800
1800
1c00
2600
f700
ENDCHAR
STARTCHAR y
ENCODING -1 121
SWIDTH 0 0
DWIDTH 9 0
BBX 8 11 0 -2
BITMAP
ef00
6600
2200
3400
1800
0800
1000
1000
1000
6000
6000
ENDCHAR
STARTCHAR z
ENCODING -1 122
SWIDTH 0 0
DWIDTH 7 0
BBX 6 8 0 1
BITMAP
fc00
9800
1800
3000
3000
6000
6400
fc00
ENDCHAR
STARTCHAR {
ENCODING -1 123
SWIDTH 0 0
DWIDTH 8 0
BBX 7 11 0 1
BITMAP
1e00
3000
3000
3000
3000
e000
3000
3000
3000
3000
1e00
ENDCHAR
STARTCHAR |
ENCODING -1 124
SWIDTH 0 0
DWIDTH 2 0
BBX 7 5 -3 -3
BITMAP
1000
3800
7c00
fe00
c600
ENDCHAR
STARTCHAR }
ENCODING -1 125
SWIDTH 0 0
DWIDTH 8 0
BBX 7 11 0 1
BITMAP
f000
1800
1800
1800
1800
0e00
1800
1800
1800
1800
f000
ENDCHAR
STARTCHAR ~
ENCODING -1 126
SWIDTH 0 0
DWIDTH 8 0
BBX 7 3 0 8
BITMAP
6600
fc00
9800
ENDCHAR
ENDFONT
